<svg width="20" height="24" viewBox="0 0 20 24" fill="none" xmlns="http://www.w3.org/2000/svg">
<path fill-rule="evenodd" clip-rule="evenodd" d="M15.4334 2.24158C15.5605 2.12307 15.6626 1.98015 15.7333 1.82136C15.8041 1.66257 15.8421 1.49115 15.8452 1.31734C15.8482 1.14353 15.8163 0.970876 15.7512 0.809688C15.686 0.648499 15.5891 0.502076 15.4662 0.379152C15.3433 0.256228 15.1969 0.159322 15.0357 0.0942151C14.8745 0.0291084 14.7018 -0.00286528 14.528 0.000201461C14.3542 0.0032682 14.1828 0.0413125 14.024 0.112065C13.8652 0.182817 13.7223 0.284828 13.6038 0.412012L11.0148 3.00102C10.8876 3.11953 10.7856 3.26245 10.7148 3.42124C10.6441 3.58003 10.606 3.75144 10.603 3.92526C10.5999 4.09907 10.6319 4.27172 10.697 4.43291C10.7621 4.5941 10.859 4.74052 10.9819 4.86345C11.1048 4.98637 11.2513 5.08328 11.4125 5.14838C11.5736 5.21349 11.7463 5.24546 11.9201 5.2424C12.0939 5.23933 12.2653 5.20129 12.4241 5.13053C12.5829 5.05978 12.7258 4.95777 12.8443 4.83059L15.4334 2.24158ZM12.7788 6.42542C13.9333 6.2061 15.1277 6.35924 16.1896 6.86273C17.2515 7.36621 18.126 8.19402 18.6869 9.22672C18.7478 9.33862 18.7832 9.46262 18.7905 9.58981C18.7978 9.717 18.7769 9.84424 18.7292 9.96238C18.6815 10.0805 18.6083 10.1866 18.5147 10.2731C18.4211 10.3596 18.3096 10.4243 18.1881 10.4625C17.5519 10.6636 16.9961 11.0617 16.6012 11.5994C16.2062 12.1371 15.9924 12.7865 15.9909 13.4537V13.4675C15.9777 14.2322 16.2451 14.9753 16.7425 15.5563C17.2398 16.1373 17.9328 16.516 18.6903 16.6209C18.8109 16.6375 18.9266 16.6794 19.0298 16.7439C19.133 16.8084 19.2214 16.894 19.2892 16.995C19.357 17.0961 19.4027 17.2103 19.4232 17.3303C19.4438 17.4503 19.4387 17.5732 19.4084 17.6911C18.8984 19.6815 17.8622 21.4981 16.4086 22.9502C15.6716 23.6027 14.728 23.9741 13.744 23.9987C12.76 24.0233 11.7989 23.6997 11.0303 23.0848C10.814 22.9287 10.5538 22.8452 10.287 22.8465C10.0203 22.8477 9.76078 22.9336 9.54595 23.0917C8.74092 23.6991 7.74527 23.9987 6.73875 23.9363C5.73223 23.8739 4.78116 23.4538 4.05725 22.7517C2.18112 20.766 1.00529 18.2216 0.708802 15.5059C0.349585 13.4774 0.68784 11.3871 1.66846 9.57538C2.03666 8.8538 2.55111 8.21681 3.17903 7.70499C3.80695 7.19317 4.53459 6.81773 5.31559 6.60259C6.09659 6.38745 6.91384 6.33732 7.71528 6.4554C8.51672 6.57348 9.28478 6.85718 9.97055 7.28842C10.0791 7.3487 10.201 7.3809 10.3252 7.38211C10.4494 7.38332 10.5719 7.35348 10.6817 7.29532C11.3132 6.8637 12.0272 6.56752 12.7788 6.42542Z" fill="#BCBCBC"/>
</svg>
