<svg width="25" height="24" viewBox="0 0 25 24" fill="none" xmlns="http://www.w3.org/2000/svg">
<path fill-rule="evenodd" clip-rule="evenodd" d="M6.11179 0C4.74805 -1.00559e-07 3.44013 0.541609 2.47564 1.50573C1.51114 2.46986 0.96903 3.77756 0.968506 5.1413V18.8567C0.968506 20.2208 1.51039 21.529 2.47494 22.4936C3.43949 23.4581 4.7477 24 6.11179 24H19.8272C21.1909 23.9995 22.4986 23.4574 23.4628 22.4929C24.4269 21.5284 24.9685 20.2205 24.9685 18.8567V5.1413C24.968 3.77791 24.4261 2.4705 23.4621 1.50643C22.498 0.542363 21.1906 0.000523478 19.8272 0H6.11179ZM21.3066 5.14921C21.3066 5.54209 21.1505 5.91888 20.8727 6.19668C20.5949 6.47449 20.2181 6.63057 19.8252 6.63057C19.4323 6.63057 19.0556 6.47449 18.7777 6.19668C18.4999 5.91888 18.3439 5.54209 18.3439 5.14921C18.3439 4.75632 18.4999 4.37954 18.7777 4.10173C19.0556 3.82392 19.4323 3.66785 19.8252 3.66785C20.2181 3.66785 20.5949 3.82392 20.8727 4.10173C21.1505 4.37954 21.3066 4.75632 21.3066 5.14921ZM12.9715 7.89071C11.8819 7.89071 10.8369 8.32355 10.0665 9.094C9.296 9.86446 8.86316 10.9094 8.86316 11.999C8.86316 13.0886 9.296 14.1336 10.0665 14.904C10.8369 15.6745 11.8819 16.1073 12.9715 16.1073C14.0611 16.1073 15.106 15.6745 15.8765 14.904C16.6469 14.1336 17.0798 13.0886 17.0798 11.999C17.0798 10.9094 16.6469 9.86446 15.8765 9.094C15.106 8.32355 14.0611 7.89071 12.9715 7.89071ZM6.88604 11.999C6.88604 11.2001 7.0434 10.4091 7.34912 9.67098C7.65484 8.9329 8.10294 8.26226 8.66784 7.69736C9.23275 7.13246 9.90338 6.68436 10.6415 6.37864C11.3795 6.07292 12.1706 5.91556 12.9695 5.91556C13.7684 5.91556 14.5595 6.07292 15.2975 6.37864C16.0356 6.68436 16.7062 7.13246 17.2711 7.69736C17.836 8.26226 18.2841 8.9329 18.5899 9.67098C18.8956 10.4091 19.0529 11.2001 19.0529 11.999C19.0529 13.6124 18.412 15.1598 17.2711 16.3007C16.1303 17.4415 14.5829 18.0825 12.9695 18.0825C11.3561 18.0825 9.80871 17.4415 8.66784 16.3007C7.52698 15.1598 6.88604 13.6124 6.88604 11.999Z" fill="#BCBCBC"/>
</svg>
