<svg width="24" height="24" viewBox="0 0 24 24" fill="none" xmlns="http://www.w3.org/2000/svg">
<path fill-rule="evenodd" clip-rule="evenodd" d="M5.12729 4.05127C5.58142 3.5916 5.83119 2.97757 5.82595 2.33952C5.80249 1.72019 5.53899 1.13306 5.08932 0.698193C4.63966 0.263324 4.0378 0.0135677 3.40683 0C2.77395 0.0133116 2.16991 0.262429 1.71713 0.696856C1.26436 1.13128 0.996732 1.71851 0.968506 2.33952C0.977482 2.97696 1.23556 3.58664 1.68938 4.0425C2.14321 4.49837 2.75807 4.76555 3.40683 4.7888C4.05657 4.77381 4.67436 4.50897 5.12729 4.05127ZM2.9562 7.94132C1.93091 7.91902 1.23225 7.90358 1.23225 9.13509V22.8429C1.23225 24.0486 1.89947 24.0246 2.86013 23.9886C3.0348 23.9818 3.2182 23.9749 3.40858 23.9749C3.60071 23.9749 3.78411 23.9818 3.95703 23.9886C4.9142 24.0229 5.56744 24.0486 5.56744 22.8429V9.13681C5.56744 7.9053 4.88276 7.91902 3.86271 7.94303C3.56058 7.94984 3.25833 7.94984 2.9562 7.94303V7.94132ZM10.0895 7.96705C9.62492 8.05795 9.32624 8.34953 9.32624 9.13509V22.8429C9.32624 24.0486 9.96726 24.0246 10.9297 23.9886C11.1043 23.9818 11.2912 23.9749 11.4851 23.9749C11.6807 23.9749 11.8659 23.9818 12.0423 23.9886C13.0099 24.0229 13.6632 24.0486 13.6632 22.8429V15.5327C13.6259 15.1591 13.67 14.7819 13.7924 14.4262C13.9148 14.0705 14.1128 13.7444 14.3732 13.4695C14.6336 13.1947 14.9506 12.9773 15.3031 12.8318C15.6555 12.6862 16.0354 12.6159 16.4177 12.6255C16.8017 12.6029 17.1862 12.6618 17.545 12.7982C17.9039 12.9346 18.2285 13.1453 18.497 13.416C18.7655 13.6866 18.9715 14.0108 19.1009 14.3666C19.2304 14.7224 19.2803 15.1014 19.2472 15.4779V22.7863C19.2472 23.9938 19.8865 23.9697 20.8489 23.9337C21.0236 23.9269 21.2105 23.92 21.4043 23.92C21.6 23.92 21.7851 23.9269 21.9615 23.9337C22.9239 23.968 23.5632 23.9938 23.5632 22.788V13.4299C23.599 12.6616 23.4697 11.8945 23.1837 11.1785C22.8977 10.4625 22.4615 9.81359 21.9033 9.27405C21.3451 8.7345 20.6776 8.31638 19.944 8.04687C19.2104 7.77736 18.4273 7.66251 17.6456 7.70977C16.8493 7.63864 16.0479 7.7694 15.3179 8.08954C14.5879 8.40967 13.9538 8.90846 13.4763 9.53816C13.4955 8.86238 13.2719 7.96705 12.7148 7.96705C12.5541 7.96705 12.3078 7.95847 12.0283 7.9499C11.3297 7.92931 10.4214 7.90187 10.0895 7.96705Z" fill="#BCBCBC"/>
</svg>
