<svg width="16" height="17" viewBox="0 0 16 17" fill="none" xmlns="http://www.w3.org/2000/svg">
<path fill-rule="evenodd" clip-rule="evenodd" d="M7.92047 9.71354C8.55838 9.71354 9.19005 9.5879 9.77941 9.34378C10.3688 9.09966 10.9043 8.74185 11.3553 8.29077C11.8064 7.8397 12.1642 7.3042 12.4083 6.71484C12.6525 6.12548 12.7781 5.49382 12.7781 4.8559V4.8049C11.4457 4.77017 10.1693 4.26118 9.1786 3.36946C8.14874 4.29653 6.81173 4.80884 5.42607 4.80733C4.62159 4.80834 3.82633 4.63603 3.09441 4.30213C3.01636 4.98232 3.08297 5.67133 3.28989 6.32396C3.4968 6.9766 3.83934 7.57813 4.29503 8.0891C4.75073 8.60006 5.30929 9.00893 5.93409 9.28889C6.5589 9.56884 7.23582 9.71355 7.92047 9.71354ZM9.63279 2.10769C10.3937 2.96905 11.4618 3.49789 12.6081 3.58077C12.339 2.59441 11.7656 1.71804 10.9696 1.07636C10.1736 0.434682 9.19557 0.0603776 8.17456 0.00670387C7.15355 -0.0469698 6.14161 0.222721 5.28273 0.777406C4.42386 1.33209 3.76179 2.14351 3.39072 3.09622C3.99914 3.41318 4.69014 3.59292 5.42486 3.59292C6.04877 3.59389 6.66574 3.46194 7.23467 3.20584C7.80361 2.94975 8.31146 2.57539 8.72441 2.10769C8.78138 2.04348 8.85132 1.99209 8.92961 1.95689C9.0079 1.92169 9.09276 1.90349 9.1786 1.90349C9.26444 1.90349 9.3493 1.92169 9.42759 1.95689C9.50588 1.99209 9.57582 2.04348 9.63279 2.10769ZM0.0413788 16.2313C0.677742 14.6633 1.76744 13.3209 3.17104 12.3758C4.57465 11.4307 6.22832 10.9258 7.92047 10.9258C9.61262 10.9258 11.2663 11.4307 12.6699 12.3758C14.0735 13.3209 15.1632 14.6633 15.7996 16.2313C15.9526 16.6077 15.6611 17 15.2555 17H0.585434C0.179822 17 -0.111637 16.6077 0.0413788 16.2313Z" fill="#BCBCBC"/>
</svg>
