<svg width="25" height="24" viewBox="0 0 25 24" fill="none" xmlns="http://www.w3.org/2000/svg">
<path d="M0.968506 22.1537V1.84629C0.968506 1.35662 1.16302 0.88701 1.50927 0.540765C1.85552 0.194519 2.32513 0 2.81479 0L23.1222 0C23.3647 0 23.6048 0.0477556 23.8288 0.14054C24.0528 0.233325 24.2563 0.369321 24.4277 0.540765C24.5992 0.712208 24.7352 0.915741 24.828 1.13974C24.9207 1.36374 24.9685 1.60383 24.9685 1.84629V22.1537C24.9685 22.3962 24.9207 22.6363 24.828 22.8603C24.7352 23.0843 24.5992 23.2878 24.4277 23.4592C24.2563 23.6307 24.0528 23.7667 23.8288 23.8595C23.6048 23.9522 23.3647 24 23.1222 24H17.5851V15.2486H18.8948C19.1935 15.2486 19.48 15.1299 19.6912 14.9187C19.9024 14.7075 20.0211 14.421 20.0211 14.1223V12.7029C20.0215 12.5548 19.9927 12.4082 19.9363 12.2713C19.8798 12.1345 19.7969 12.0101 19.6922 11.9054C19.5875 11.8008 19.4632 11.7178 19.3263 11.6614C19.1895 11.6049 19.0428 11.5761 18.8948 11.5766H17.6571V9.84C17.6571 8.28857 18.3599 8.28857 19.0611 8.28857H19.9645C20.1132 8.29515 20.2616 8.26891 20.3991 8.21173C20.5365 8.15456 20.6597 8.06783 20.7599 7.95771C20.8674 7.85539 20.9525 7.73185 21.0098 7.59493C21.067 7.458 21.0952 7.31067 21.0925 7.16229V5.79771C21.1018 5.49392 20.9902 5.19885 20.7823 4.97713C20.5744 4.75542 20.2871 4.62515 19.9834 4.61486H17.8611C17.2415 4.59139 16.6243 4.70273 16.052 4.94119C15.4797 5.17964 14.966 5.53952 14.5464 5.99594C14.1268 6.45237 13.8114 6.99447 13.6218 7.58476C13.4322 8.17506 13.3731 8.79947 13.4485 9.41486V11.5749H12.2656C12.1163 11.5726 11.968 11.6 11.8294 11.6556C11.6907 11.7112 11.5645 11.7938 11.4581 11.8986C11.3517 12.0034 11.2672 12.1284 11.2096 12.2661C11.1519 12.4039 11.1222 12.5518 11.1222 12.7011V14.124C11.1224 14.2734 11.1523 14.4212 11.2102 14.5589C11.2681 14.6966 11.3528 14.8214 11.4594 14.926C11.5659 15.0307 11.6922 15.1131 11.831 15.1685C11.9697 15.2238 12.118 15.2511 12.2674 15.2486H13.4485V24H2.81479C2.57233 24 2.33225 23.9522 2.10825 23.8595C1.88425 23.7667 1.68071 23.6307 1.50927 23.4592C1.33783 23.2878 1.20183 23.0843 1.10905 22.8603C1.01626 22.6363 0.968506 22.3962 0.968506 22.1537Z" fill="#BCBCBC"/>
</svg>
