<svg width="160" height="45" viewBox="0 0 160 45" fill="none" xmlns="http://www.w3.org/2000/svg">
<g opacity="0.97">
<path d="M116.802 23.3825C116.802 20.3827 117.362 17.5828 118.482 14.9829C119.642 12.3431 121.182 10.0632 123.102 8.14329C125.062 6.18339 127.342 4.64347 129.942 3.52352C132.581 2.36358 135.401 1.78361 138.401 1.78361C141.401 1.78361 144.201 2.36358 146.801 3.52352C149.441 4.64347 151.72 6.18339 153.64 8.14329C155.6 10.0632 157.14 12.3431 158.26 14.9829C159.42 17.5828 160 20.3827 160 23.3825C160 26.3824 159.42 29.2022 158.26 31.8421C157.14 34.4419 155.6 36.7218 153.64 38.6817C151.72 40.6016 149.441 42.1415 146.801 43.3015C144.201 44.4214 141.401 44.9814 138.401 44.9814C135.401 44.9814 132.581 44.4214 129.942 43.3015C127.342 42.1415 125.062 40.6016 123.102 38.6817C121.182 36.7218 119.642 34.4419 118.482 31.8421C117.362 29.2022 116.802 26.3824 116.802 23.3825ZM126.402 23.3225C126.402 25.1624 126.722 26.9023 127.362 28.5422C128.002 30.1422 128.862 31.5421 129.942 32.742C131.022 33.942 132.281 34.8819 133.721 35.5619C135.201 36.2418 136.761 36.5818 138.401 36.5818C140.041 36.5818 141.581 36.2418 143.021 35.5619C144.501 34.8819 145.781 33.942 146.861 32.742C147.941 31.5421 148.801 30.1422 149.441 28.5422C150.081 26.9023 150.401 25.1624 150.401 23.3225C150.401 21.5226 150.081 19.8227 149.441 18.2228C148.801 16.6229 147.941 15.2229 146.861 14.023C145.781 12.823 144.501 11.8831 143.021 11.2031C141.581 10.5232 140.041 10.1832 138.401 10.1832C136.761 10.1832 135.201 10.5232 133.721 11.2031C132.281 11.8831 131.022 12.823 129.942 14.023C128.862 15.2229 128.002 16.6229 127.362 18.2228C126.722 19.8227 126.402 21.5226 126.402 23.3225Z" fill="#FBC16B" fill-opacity="0.88"/>
<path d="M100.885 0.559111H110.272L110.272 25.8639H100.885L100.885 0.559111Z" fill="#FBC16B" fill-opacity="0.88"/>
<path d="M83.0232 0.600121H92.3227V34.1984H110.082V42.598H83.0232V0.600121Z" fill="#FBC16B" fill-opacity="0.88"/>
<path d="M33.2515 21.5989C33.2515 18.599 33.8114 15.7992 34.9314 13.1993C36.0913 10.5595 37.6312 8.27958 39.5511 6.35967C41.511 4.39977 43.7909 2.85985 46.3908 1.73991C49.0307 0.57997 51.8505 0 54.8504 0C57.8502 0 60.6501 0.57997 63.2499 1.73991C65.8898 2.85985 68.1697 4.39977 70.0896 6.35967C72.0495 8.27958 73.5894 10.5595 74.7093 13.1993C75.8693 15.7992 76.4493 18.599 76.4493 21.5989C76.4493 24.5987 75.8693 27.4186 74.7093 30.0585C73.5894 32.6583 72.0495 34.9382 70.0896 36.8981C68.1697 38.818 65.8898 40.3579 63.2499 41.5179C60.6501 42.6378 57.8502 43.1978 54.8504 43.1978C51.8505 43.1978 49.0307 42.6378 46.3908 41.5179C43.7909 40.3579 41.511 38.818 39.5511 36.8981C37.6312 34.9382 36.0913 32.6583 34.9314 30.0585C33.8114 27.4186 33.2515 24.5987 33.2515 21.5989ZM42.851 21.5389C42.851 23.3788 43.171 25.1187 43.8109 26.7586C44.4509 28.3585 45.3108 29.7585 46.3908 30.9584C47.4707 32.1584 48.7307 33.0983 50.1706 33.7783C51.6505 34.4582 53.2104 34.7982 54.8504 34.7982C56.4903 34.7982 58.0302 34.4582 59.4701 33.7783C60.95 33.0983 62.23 32.1584 63.3099 30.9584C64.3899 29.7585 65.2498 28.3585 65.8898 26.7586C66.5298 25.1187 66.8497 23.3788 66.8497 21.5389C66.8497 19.739 66.5298 18.0391 65.8898 16.4392C65.2498 14.8392 64.3899 13.4393 63.3099 12.2394C62.23 11.0394 60.95 10.0995 59.4701 9.41952C58.0302 8.73955 56.4903 8.39957 54.8504 8.39957C53.2104 8.39957 51.6505 8.73955 50.1706 9.41952C48.7307 10.0995 47.4707 11.0394 46.3908 12.2394C45.3108 13.4393 44.4509 14.8392 43.8109 16.4392C43.171 18.0391 42.851 19.739 42.851 21.5389Z" fill="#FBC16B" fill-opacity="0.88"/>
<path d="M0 0.600121H28.4385V8.99969H9.29952V18.6592H27.2386V26.8788H9.29952V42.598H0V0.600121Z" fill="#FBC16B" fill-opacity="0.88"/>
</g>
</svg>
